# xmcd CD database file
#
# Track frame offsets:
#	150
#	20088
#	40384
#	58336
#	78872
#
# Disc length: 1158 seconds
#
# Revision: 0
# Processed by: cddbd v1.5PL3 Copyright (c) Steve Scherf et al.
# Submitted via: CDex 1.51
#
DISCID=3d048405
DTITLE=ミルフィーユ・桜庭*新谷良子＆烏丸ちとせ*後藤沙緒里 - GALAXY ANGEL Duet1
DYEAR=2004
DGENRE=Anime
TTITLE0=笑顔にGet on ！
TTITLE1=LOVE FROM SPACE
TTITLE2=笑顔にGet on ！ 〜electro sound mix〜
TTITLE3=LOVE FROM SPACE 〜ambient mix〜
TTITLE4=カラフル銀河
EXTD=YEAR: 2004
EXTT0=
EXTT1=
EXTT2=
EXTT3=
EXTT4=
PLAYORDER=
